<svg width="180" height="62" viewBox="0 0 180 62" fill="none" xmlns="http://www.w3.org/2000/svg">
<g filter="url(#filter0_dd_1_1327)">
<path d="M5 23C5 11.9543 13.9543 3 25 3H155C166.046 3 175 11.9543 175 23V55H25C13.9543 55 5 46.0457 5 35V23Z" fill="white"/>
<path d="M41.7362 33.02L41.8082 29.6L46.3262 25.316L49.6742 25.316L45.3362 29.726L43.8782 30.914L41.7362 33.02ZM39.4142 35L39.4142 21.644H42.2222L42.2222 35H39.4142ZM46.6322 35L43.3562 30.932L45.1202 28.754L50.0342 35H46.6322ZM55.6987 35.144C54.5947 35.144 53.6227 34.928 52.7827 34.496C51.9547 34.064 51.3127 33.476 50.8567 32.732C50.4007 31.976 50.1727 31.118 50.1727 30.158C50.1727 29.186 50.3947 28.328 50.8387 27.584C51.2947 26.828 51.9127 26.24 52.6927 25.82C53.4727 25.388 54.3547 25.172 55.3387 25.172C56.2867 25.172 57.1387 25.376 57.8947 25.784C58.6627 26.18 59.2687 26.756 59.7127 27.512C60.1567 28.256 60.3787 29.15 60.3787 30.194C60.3787 30.302 60.3727 30.428 60.3607 30.572C60.3487 30.704 60.3367 30.83 60.3247 30.95L52.4587 30.95V29.312L58.8487 29.312L57.7687 29.798C57.7687 29.294 57.6667 28.856 57.4627 28.484C57.2587 28.112 56.9767 27.824 56.6167 27.62C56.2567 27.404 55.8367 27.296 55.3567 27.296C54.8767 27.296 54.4507 27.404 54.0787 27.62C53.7187 27.824 53.4367 28.118 53.2327 28.502C53.0287 28.874 52.9267 29.318 52.9267 29.834V30.266C52.9267 30.794 53.0407 31.262 53.2687 31.67C53.5087 32.066 53.8387 32.372 54.2587 32.588C54.6907 32.792 55.1947 32.894 55.7707 32.894C56.2867 32.894 56.7367 32.816 57.1207 32.66C57.5167 32.504 57.8767 32.27 58.2007 31.958L59.6947 33.578C59.2507 34.082 58.6927 34.472 58.0207 34.748C57.3487 35.012 56.5747 35.144 55.6987 35.144ZM66.2081 35.144C65.0681 35.144 64.1801 34.856 63.5441 34.28C62.9081 33.692 62.5901 32.822 62.5901 31.67V23.174H65.3981V31.634C65.3981 32.042 65.5061 32.36 65.7221 32.588C65.9381 32.804 66.2321 32.912 66.6041 32.912C67.0481 32.912 67.4261 32.792 67.7381 32.552L68.4941 34.532C68.2061 34.736 67.8581 34.892 67.4501 35C67.0541 35.096 66.6401 35.144 66.2081 35.144ZM61.0961 27.692V25.532H67.8101V27.692H61.0961ZM70.0704 35V25.316H72.8784V35H70.0704ZM71.4744 23.966C70.9584 23.966 70.5384 23.816 70.2144 23.516C69.8904 23.216 69.7284 22.844 69.7284 22.4C69.7284 21.956 69.8904 21.584 70.2144 21.284C70.5384 20.984 70.9584 20.834 71.4744 20.834C71.9904 20.834 72.4104 20.978 72.7344 21.266C73.0584 21.542 73.2204 21.902 73.2204 22.346C73.2204 22.814 73.0584 23.204 72.7344 23.516C72.4224 23.816 72.0024 23.966 71.4744 23.966ZM77.8065 33.02L77.8785 29.6L82.3965 25.316L85.7445 25.316L81.4065 29.726L79.9485 30.914L77.8065 33.02ZM75.4845 35V21.644L78.2925 21.644V35H75.4845ZM82.7025 35L79.4265 30.932L81.1905 28.754L86.1045 35H82.7025ZM96.6229 35.144C95.7109 35.144 94.8889 34.94 94.1569 34.532C93.4249 34.112 92.8429 33.53 92.4109 32.786C91.9909 32.042 91.7809 31.166 91.7809 30.158C91.7809 29.138 91.9909 28.256 92.4109 27.512C92.8429 26.768 93.4249 26.192 94.1569 25.784C94.8889 25.376 95.7109 25.172 96.6229 25.172C97.4389 25.172 98.1529 25.352 98.7649 25.712C99.3769 26.072 99.8509 26.618 100.187 27.35C100.523 28.082 100.691 29.018 100.691 30.158C100.691 31.286 100.529 32.222 100.205 32.966C99.8809 33.698 99.4129 34.244 98.8009 34.604C98.2009 34.964 97.4749 35.144 96.6229 35.144ZM97.1089 32.84C97.5649 32.84 97.9789 32.732 98.3509 32.516C98.7229 32.3 99.0169 31.994 99.2329 31.598C99.4609 31.19 99.5749 30.71 99.5749 30.158C99.5749 29.594 99.4609 29.114 99.2329 28.718C99.0169 28.322 98.7229 28.016 98.3509 27.8C97.9789 27.584 97.5649 27.476 97.1089 27.476C96.6409 27.476 96.2209 27.584 95.8489 27.8C95.4769 28.016 95.1769 28.322 94.9489 28.718C94.7329 29.114 94.6249 29.594 94.6249 30.158C94.6249 30.71 94.7329 31.19 94.9489 31.598C95.1769 31.994 95.4769 32.3 95.8489 32.516C96.2209 32.732 96.6409 32.84 97.1089 32.84ZM99.6469 35V33.02L99.7009 30.14L99.5209 27.278V21.644H102.329V35H99.6469ZM104.928 35V25.316L107.736 25.316V35H104.928ZM106.332 23.966C105.816 23.966 105.396 23.816 105.072 23.516C104.748 23.216 104.586 22.844 104.586 22.4C104.586 21.956 104.748 21.584 105.072 21.284C105.396 20.984 105.816 20.834 106.332 20.834C106.848 20.834 107.268 20.978 107.592 21.266C107.916 21.542 108.078 21.902 108.078 22.346C108.078 22.814 107.916 23.204 107.592 23.516C107.28 23.816 106.86 23.966 106.332 23.966ZM113.6 35.144C112.772 35.144 111.974 35.048 111.206 34.856C110.45 34.652 109.85 34.4 109.406 34.1L110.342 32.084C110.786 32.36 111.308 32.588 111.908 32.768C112.52 32.936 113.12 33.02 113.708 33.02C114.356 33.02 114.812 32.942 115.076 32.786C115.352 32.63 115.49 32.414 115.49 32.138C115.49 31.91 115.382 31.742 115.166 31.634C114.962 31.514 114.686 31.424 114.338 31.364C113.99 31.304 113.606 31.244 113.186 31.184C112.778 31.124 112.364 31.046 111.944 30.95C111.524 30.842 111.14 30.686 110.792 30.482C110.444 30.278 110.162 30.002 109.946 29.654C109.742 29.306 109.64 28.856 109.64 28.304C109.64 27.692 109.814 27.152 110.162 26.684C110.522 26.216 111.038 25.85 111.71 25.586C112.382 25.31 113.186 25.172 114.122 25.172C114.782 25.172 115.454 25.244 116.138 25.388C116.822 25.532 117.392 25.742 117.848 26.018L116.912 28.016C116.444 27.74 115.97 27.554 115.49 27.458C115.022 27.35 114.566 27.296 114.122 27.296C113.498 27.296 113.042 27.38 112.754 27.548C112.466 27.716 112.322 27.932 112.322 28.196C112.322 28.436 112.424 28.616 112.628 28.736C112.844 28.856 113.126 28.952 113.474 29.024C113.822 29.096 114.2 29.162 114.608 29.222C115.028 29.27 115.448 29.348 115.868 29.456C116.288 29.564 116.666 29.72 117.002 29.924C117.35 30.116 117.632 30.386 117.848 30.734C118.064 31.07 118.172 31.514 118.172 32.066C118.172 32.666 117.992 33.2 117.632 33.668C117.272 34.124 116.75 34.484 116.066 34.748C115.394 35.012 114.572 35.144 113.6 35.144ZM119.904 35V25.316H122.712V35H119.904ZM121.308 23.966C120.792 23.966 120.372 23.816 120.048 23.516C119.724 23.216 119.562 22.844 119.562 22.4C119.562 21.956 119.724 21.584 120.048 21.284C120.372 20.984 120.792 20.834 121.308 20.834C121.824 20.834 122.244 20.978 122.568 21.266C122.892 21.542 123.054 21.902 123.054 22.346C123.054 22.814 122.892 23.204 122.568 23.516C122.256 23.816 121.836 23.966 121.308 23.966ZM131.204 25.172C131.972 25.172 132.656 25.328 133.256 25.64C133.868 25.94 134.348 26.408 134.696 27.044C135.044 27.668 135.218 28.472 135.218 29.456V35H132.41V29.888C132.41 29.108 132.236 28.532 131.888 28.16C131.552 27.788 131.072 27.602 130.448 27.602C130.004 27.602 129.602 27.698 129.242 27.89C128.894 28.07 128.618 28.352 128.414 28.736C128.222 29.12 128.126 29.612 128.126 30.212V35H125.318V25.316H128V27.998L127.496 27.188C127.844 26.54 128.342 26.042 128.99 25.694C129.638 25.346 130.376 25.172 131.204 25.172ZM137.764 35V25.316H140.572V35H137.764ZM139.168 23.966C138.652 23.966 138.232 23.816 137.908 23.516C137.584 23.216 137.422 22.844 137.422 22.4C137.422 21.956 137.584 21.584 137.908 21.284C138.232 20.984 138.652 20.834 139.168 20.834C139.684 20.834 140.104 20.978 140.428 21.266C140.752 21.542 140.914 21.902 140.914 22.346C140.914 22.814 140.752 23.204 140.428 23.516C140.116 23.816 139.696 23.966 139.168 23.966Z" fill="#796FC3"/>
</g>
<defs>
<filter id="filter0_dd_1_1327" x="0" y="0" width="180" height="62" filterUnits="userSpaceOnUse" color-interpolation-filters="sRGB">
<feFlood flood-opacity="0" result="BackgroundImageFix"/>
<feColorMatrix in="SourceAlpha" type="matrix" values="0 0 0 0 0 0 0 0 0 0 0 0 0 0 0 0 0 0 127 0" result="hardAlpha"/>
<feOffset dy="2"/>
<feGaussianBlur stdDeviation="2.5"/>
<feColorMatrix type="matrix" values="0 0 0 0 0.0901961 0 0 0 0 0.101961 0 0 0 0 0.121569 0 0 0 0.17 0"/>
<feBlend mode="normal" in2="BackgroundImageFix" result="effect1_dropShadow_1_1327"/>
<feColorMatrix in="SourceAlpha" type="matrix" values="0 0 0 0 0 0 0 0 0 0 0 0 0 0 0 0 0 0 127 0" result="hardAlpha"/>
<feOffset/>
<feGaussianBlur stdDeviation="1"/>
<feColorMatrix type="matrix" values="0 0 0 0 0.0901961 0 0 0 0 0.101961 0 0 0 0 0.121569 0 0 0 0.2 0"/>
<feBlend mode="normal" in2="effect1_dropShadow_1_1327" result="effect2_dropShadow_1_1327"/>
<feBlend mode="normal" in="SourceGraphic" in2="effect2_dropShadow_1_1327" result="shape"/>
</filter>
</defs>
</svg>
