<?xml version="1.0" standalone="no"?>
<!DOCTYPE svg PUBLIC "-//W3C//DTD SVG 20010904//EN"
 "http://www.w3.org/TR/2001/REC-SVG-20010904/DTD/svg10.dtd">
<svg version="1.0" xmlns="http://www.w3.org/2000/svg"
 width="771.000000pt" height="589.000000pt" viewBox="0 0 771.000000 589.000000"
 preserveAspectRatio="xMidYMid meet">

<g transform="translate(0.000000,589.000000) scale(0.100000,-0.100000)"
fill="#000000" stroke="none">
<path d="M3869 5783 c-13 -16 -12 -17 4 -4 9 7 17 15 17 17 0 8 -8 3 -21 -13z"/>
<path d="M3857 5723 c-13 -12 -7 -40 11 -54 15 -13 16 -12 3 3 -7 10 -11 27
-8 38 5 21 4 24 -6 13z"/>
<path d="M4250 5676 c0 -2 8 -10 18 -17 15 -13 16 -12 3 4 -13 16 -21 21 -21
13z"/>
<path d="M3734 5638 c-44 -51 -57 -68 -52 -68 3 0 22 20 42 45 38 46 45 63 10
23z"/>
<path d="M3735 5600 c-26 -27 -52 -47 -55 -45 -9 5 -33 -21 -50 -55 -7 -14 26
13 74 59 47 47 86 86 86 88 0 7 -9 0 -55 -47z m-55 -54 c0 -2 -8 -10 -17 -17
-16 -13 -17 -12 -4 4 13 16 21 21 21 13z"/>
<path d="M3880 5646 c0 -2 8 -10 18 -17 15 -13 16 -12 3 4 -13 16 -21 21 -21
13z"/>
<path d="M3920 5596 c0 -2 8 -10 18 -17 15 -13 16 -12 3 4 -13 16 -21 21 -21
13z"/>
<path d="M4314 5584 c2 -11 8 -19 15 -19 7 0 21 -11 31 -25 11 -14 20 -20 20
-14 0 5 -15 25 -34 43 -27 26 -34 29 -32 15z"/>
<path d="M3950 5556 c0 -2 8 -10 18 -17 15 -13 16 -12 3 4 -13 16 -21 21 -21
13z"/>
<path d="M3813 5505 c0 -22 2 -30 4 -17 2 12 2 30 0 40 -3 9 -5 -1 -4 -23z"/>
<path d="M4036 5475 c-16 -12 -17 -15 -4 -15 9 0 18 7 22 15 7 18 6 18 -18 0z"/>
<path d="M4343 5466 c0 -15 22 -15 34 0 4 5 4 6 -1 2 -5 -4 -14 -3 -21 2 -8 7
-12 5 -12 -4z"/>
<path d="M3645 5430 c10 -11 20 -20 23 -20 3 0 -3 9 -13 20 -10 11 -20 20 -23
20 -3 0 3 -9 13 -20z"/>
<path d="M4100 5440 c8 -5 22 -9 30 -9 10 0 8 3 -5 9 -27 12 -43 12 -25 0z"/>
<path d="M4339 5423 c-13 -16 -12 -17 4 -4 9 7 17 15 17 17 0 8 -8 3 -21 -13z"/>
<path d="M3835 5395 c-25 -12 -26 -14 -5 -9 28 7 60 23 45 23 -5 0 -23 -6 -40
-14z"/>
<path d="M4210 5406 c0 -2 7 -6 15 -10 8 -3 15 -1 15 4 0 6 -7 10 -15 10 -8 0
-15 -2 -15 -4z"/>
<path d="M4269 5393 c-13 -16 -12 -17 4 -4 16 13 21 21 13 21 -2 0 -10 -8 -17
-17z"/>
<path d="M3742 5325 c43 -43 79 -77 80 -75 2 3 -33 39 -77 80 l-80 74 77 -79z"/>
<path d="M4309 5383 c-13 -16 -12 -17 4 -4 9 7 17 15 17 17 0 8 -8 3 -21 -13z"/>
<path d="M4279 5343 c-13 -16 -12 -17 4 -4 9 7 17 15 17 17 0 8 -8 3 -21 -13z"/>
<path d="M4141 5334 c0 -11 3 -14 6 -6 3 7 2 16 -1 19 -3 4 -6 -2 -5 -13z"/>
<path d="M4244 5298 l-19 -23 23 19 c21 18 27 26 19 26 -2 0 -12 -10 -23 -22z"/>
<path d="M4118 5303 c7 -3 16 -2 19 1 4 3 -2 6 -13 5 -11 0 -14 -3 -6 -6z"/>
<path d="M3830 5296 c0 -2 8 -10 18 -17 15 -13 16 -12 3 4 -13 16 -21 21 -21
13z"/>
<path d="M3888 5293 c7 -3 16 -2 19 1 4 3 -2 6 -13 5 -11 0 -14 -3 -6 -6z"/>
<path d="M3948 5293 c7 -3 16 -2 19 1 4 3 -2 6 -13 5 -11 0 -14 -3 -6 -6z"/>
<path d="M4119 5273 c-13 -16 -12 -17 4 -4 9 7 17 15 17 17 0 8 -8 3 -21 -13z"/>
<path d="M4200 5260 c-8 -5 -10 -10 -5 -10 6 0 17 5 25 10 8 5 11 10 5 10 -5
0 -17 -5 -25 -10z"/>
<path d="M3903 5247 c14 -11 15 -16 5 -20 -9 -4 -9 -6 -1 -6 23 -2 23 18 1 29
-21 10 -22 10 -5 -3z"/>
<path d="M4081 5247 c-6 -8 -7 -18 -3 -22 4 -5 0 -6 -8 -3 -9 3 -25 -1 -35 -9
-19 -13 -18 -14 10 -7 17 4 39 11 50 15 19 7 19 8 1 8 -15 1 -16 4 -6 16 7 8
10 15 7 15 -2 0 -10 -6 -16 -13z"/>
<path d="M4158 5243 c7 -3 16 -2 19 1 4 3 -2 6 -13 5 -11 0 -14 -3 -6 -6z"/>
<path d="M3954 5216 c11 -9 24 -16 30 -16 12 0 7 5 -24 19 -24 11 -24 11 -6
-3z"/>
<path d="M13 3863 c9 -2 23 -2 30 0 6 3 -1 5 -18 5 -17 0 -22 -2 -12 -5z"/>
<path d="M73 3853 c9 -2 23 -2 30 0 6 3 -1 5 -18 5 -16 0 -22 -2 -12 -5z"/>
<path d="M133 3843 c9 -2 23 -2 30 0 6 3 -1 5 -18 5 -16 0 -22 -2 -12 -5z"/>
<path d="M193 3833 c9 -2 23 -2 30 0 6 3 -1 5 -18 5 -16 0 -22 -2 -12 -5z"/>
<path d="M241 3826 c2 -2 27 -6 54 -9 34 -4 42 -3 25 3 -25 8 -87 13 -79 6z"/>
<path d="M321 3744 c0 -11 3 -14 6 -6 3 7 2 16 -1 19 -3 4 -6 -2 -5 -13z"/>
<path d="M1187 3433 c-4 -3 -7 -11 -7 -17 0 -6 5 -5 12 2 6 6 9 14 7 17 -3 3
-9 2 -12 -2z"/>
<path d="M1275 3380 c3 -5 8 -10 11 -10 2 0 4 5 4 10 0 6 -5 10 -11 10 -5 0
-7 -4 -4 -10z"/>
<path d="M1097 3343 c-4 -3 -7 -13 -7 -22 1 -13 3 -13 11 2 11 19 8 33 -4 20z"/>
<path d="M1130 3269 c0 -5 5 -7 10 -4 6 3 10 8 10 11 0 2 -4 4 -10 4 -5 0 -10
-5 -10 -11z"/>
<path d="M1375 3243 c6 -5 30 -25 55 -43 33 -25 39 -27 23 -9 -12 13 -37 33
-55 43 -18 10 -28 15 -23 9z"/>
<path d="M1500 3231 c0 -6 4 -13 10 -16 6 -3 7 1 4 9 -7 18 -14 21 -14 7z"/>
<path d="M1616 3185 c4 -8 8 -15 10 -15 2 0 4 7 4 15 0 8 -4 15 -10 15 -5 0
-7 -7 -4 -15z"/>
<path d="M1045 3180 c4 -6 11 -8 16 -5 14 9 11 15 -7 15 -8 0 -12 -5 -9 -10z"/>
<path d="M1035 3149 c-4 -6 -5 -12 -2 -15 2 -3 7 2 10 11 7 17 1 20 -8 4z"/>
<path d="M1570 3125 c0 -10 29 -24 34 -17 3 6 -3 12 -14 15 -11 3 -20 4 -20 2z"/>
<path d="M991 3061 c-8 -5 -9 -11 -3 -15 5 -3 12 1 16 9 6 17 6 18 -13 6z"/>
<path d="M981 3004 c0 -11 3 -14 6 -6 3 7 2 16 -1 19 -3 4 -6 -2 -5 -13z"/>
<path d="M917 2999 c7 -7 15 -10 18 -7 3 3 -2 9 -12 12 -14 6 -15 5 -6 -5z"/>
<path d="M1610 2990 c0 -5 5 -10 11 -10 5 0 7 5 4 10 -3 6 -8 10 -11 10 -2 0
-4 -4 -4 -10z"/>
<path d="M1686 2915 c10 -8 24 -14 29 -14 6 0 1 6 -9 14 -11 8 -24 15 -30 15
-5 0 -1 -7 10 -15z"/>
<path d="M951 2911 c-8 -6 -9 -11 -3 -15 6 -3 14 -1 17 5 9 14 2 20 -14 10z"/>
<path d="M1562 2880 c0 -14 2 -19 5 -12 2 6 2 18 0 25 -3 6 -5 1 -5 -13z"/>
<path d="M1115 2869 c-4 -6 -5 -12 -2 -15 2 -3 7 2 10 11 7 17 1 20 -8 4z"/>
<path d="M1167 2863 c3 -7 9 -10 14 -7 14 8 11 21 -5 21 -8 0 -12 -6 -9 -14z"/>
<path d="M1251 2854 c0 -11 3 -14 6 -6 3 7 2 16 -1 19 -3 4 -6 -2 -5 -13z"/>
<path d="M1296 2852 c-3 -5 -8 -29 -11 -53 -6 -49 7 -28 18 29 6 31 3 41 -7
24z"/>
<path d="M1692 2831 c1 -16 5 -28 9 -26 6 5 0 55 -7 55 -3 0 -3 -13 -2 -29z"/>
<path d="M1117 2816 c-10 -26 -9 -33 8 -33 17 0 17 3 6 31 -7 18 -8 18 -14 2z"/>
<path d="M1140 2814 c0 -1 7 -15 15 -30 8 -16 15 -23 15 -16 0 6 -1 14 -2 17
-2 2 5 10 15 17 16 12 14 13 -13 13 -16 1 -30 0 -30 -1z"/>
<path d="M1241 2804 c0 -11 3 -14 6 -6 3 7 2 16 -1 19 -3 4 -6 -2 -5 -13z"/>
<path d="M1262 2800 c0 -14 2 -19 5 -12 2 6 2 18 0 25 -3 6 -5 1 -5 -13z"/>
<path d="M946 2757 c3 -10 9 -15 12 -12 3 3 0 11 -7 18 -10 9 -11 8 -5 -6z"/>
<path d="M1069 2733 c-13 -16 -12 -17 4 -4 9 7 17 15 17 17 0 8 -8 3 -21 -13z"/>
<path d="M1152 2730 c0 -14 2 -19 5 -12 2 6 2 18 0 25 -3 6 -5 1 -5 -13z"/>
<path d="M1172 2725 c0 -16 2 -22 5 -12 2 9 2 23 0 30 -3 6 -5 -1 -5 -18z"/>
<path d="M1191 2714 c0 -11 3 -14 6 -6 3 7 2 16 -1 19 -3 4 -6 -2 -5 -13z"/>
<path d="M1682 2708 c7 -15 15 -23 17 -17 2 6 -4 18 -13 27 -15 15 -15 15 -4
-10z"/>
<path d="M1025 2703 c2 -10 7 -40 11 -68 l7 -50 13 59 c8 33 12 61 9 64 -3 3
-5 0 -5 -6 0 -7 -4 -12 -10 -12 -5 0 -10 7 -10 15 0 8 -4 15 -9 15 -5 0 -8 -8
-6 -17z"/>
<path d="M1112 2670 c0 -14 2 -19 5 -12 2 6 2 18 0 25 -3 6 -5 1 -5 -13z"/>
<path d="M1162 2670 c0 -14 2 -19 5 -12 2 6 2 18 0 25 -3 6 -5 1 -5 -13z"/>
<path d="M956 2655 c-3 -8 -1 -15 4 -15 6 0 10 7 10 15 0 8 -2 15 -4 15 -2 0
-6 -7 -10 -15z"/>
<path d="M1081 2644 c0 -11 3 -14 6 -6 3 7 2 16 -1 19 -3 4 -6 -2 -5 -13z"/>
<path d="M1101 2624 c0 -11 3 -14 6 -6 3 7 2 16 -1 19 -3 4 -6 -2 -5 -13z"/>
<path d="M1151 2624 c0 -11 3 -14 6 -6 3 7 2 16 -1 19 -3 4 -6 -2 -5 -13z"/>
<path d="M1670 2630 c0 -5 5 -10 11 -10 5 0 7 5 4 10 -3 6 -8 10 -11 10 -2 0
-4 -4 -4 -10z"/>
<path d="M1191 2614 c0 -11 3 -14 6 -6 3 7 2 16 -1 19 -3 4 -6 -2 -5 -13z"/>
<path d="M1071 2604 c0 -11 3 -14 6 -6 3 7 2 16 -1 19 -3 4 -6 -2 -5 -13z"/>
<path d="M970 2596 c0 -8 4 -17 9 -20 5 -4 7 3 4 14 -6 23 -13 26 -13 6z"/>
<path d="M1141 2584 c0 -11 3 -14 6 -6 3 7 2 16 -1 19 -3 4 -6 -2 -5 -13z"/>
<path d="M1221 2584 c0 -11 3 -14 6 -6 3 7 2 16 -1 19 -3 4 -6 -2 -5 -13z"/>
<path d="M1181 2564 c0 -11 3 -14 6 -6 3 7 2 16 -1 19 -3 4 -6 -2 -5 -13z"/>
<path d="M1211 2544 c0 -11 3 -14 6 -6 3 7 2 16 -1 19 -3 4 -6 -2 -5 -13z"/>
<path d="M1121 2514 c0 -11 3 -14 6 -6 3 7 2 16 -1 19 -3 4 -6 -2 -5 -13z"/>
<path d="M1166 2503 c-3 -10 -7 -36 -10 -58 -4 -31 -2 -27 9 15 8 30 12 56 10
58 -2 2 -6 -5 -9 -15z"/>
<path d="M1201 2504 c0 -11 3 -14 6 -6 3 7 2 16 -1 19 -3 4 -6 -2 -5 -13z"/>
<path d="M999 2500 c-7 -17 18 -60 34 -60 5 0 3 8 -5 18 -9 9 -18 26 -20 37
-3 15 -5 16 -9 5z"/>
<path d="M1111 2464 c0 -11 3 -14 6 -6 3 7 2 16 -1 19 -3 4 -6 -2 -5 -13z"/>
<path d="M1191 2464 c0 -11 3 -14 6 -6 3 7 2 16 -1 19 -3 4 -6 -2 -5 -13z"/>
<path d="M1557 2430 c3 -11 9 -20 15 -20 5 0 4 9 -2 20 -6 11 -12 20 -14 20
-2 0 -2 -9 1 -20z"/>
<path d="M1080 2362 c0 -12 19 -26 26 -19 2 2 -2 10 -11 17 -9 8 -15 8 -15 2z"/>
<path d="M1570 2356 c0 -2 8 -10 18 -17 15 -13 16 -12 3 4 -13 16 -21 21 -21
13z"/>
<path d="M1461 2336 c-7 -8 -8 -17 -3 -20 6 -3 12 3 15 14 6 24 4 25 -12 6z"/>
<path d="M1120 2320 c0 -6 7 -10 15 -10 8 0 15 2 15 4 0 2 -7 6 -15 10 -8 3
-15 1 -15 -4z"/>
<path d="M1415 2300 c-3 -5 -1 -10 4 -10 6 0 11 5 11 10 0 6 -2 10 -4 10 -3 0
-8 -4 -11 -10z"/>
<path d="M1337 2263 c-4 -3 -7 -11 -7 -17 0 -6 5 -5 12 2 6 6 9 14 7 17 -3 3
-9 2 -12 -2z"/>
<path d="M1415 2230 c3 -5 8 -10 11 -10 2 0 4 5 4 10 0 6 -5 10 -11 10 -5 0
-7 -4 -4 -10z"/>
<path d="M10 1980 c0 -5 14 -10 31 -10 17 0 28 4 24 10 -3 6 -17 10 -31 10
-13 0 -24 -4 -24 -10z"/>
<path d="M42 1880 c0 -14 2 -19 5 -12 2 6 2 18 0 25 -3 6 -5 1 -5 -13z"/>
<path d="M4020 1736 c0 -2 7 -6 15 -10 8 -3 15 -1 15 4 0 6 -7 10 -15 10 -8 0
-15 -2 -15 -4z"/>
<path d="M4130 1601 c0 -12 75 -57 110 -65 16 -4 12 0 -10 10 -19 9 -50 27
-67 40 -18 14 -33 20 -33 15z"/>
<path d="M695 1570 c-11 -5 -49 -18 -85 -29 -52 -15 -59 -19 -34 -20 20 -1 34
-7 38 -17 6 -15 8 -15 24 -2 9 8 39 21 66 28 27 8 58 22 68 32 17 17 17 18
-19 17 -21 0 -47 -4 -58 -9z"/>
<path d="M943 1573 c15 -2 37 -2 50 0 12 2 0 4 -28 4 -27 0 -38 -2 -22 -4z"/>
<path d="M1243 1563 c9 -2 25 -2 35 0 9 3 1 5 -18 5 -19 0 -27 -2 -17 -5z"/>
<path d="M1313 1563 c9 -2 23 -2 30 0 6 3 -1 5 -18 5 -16 0 -22 -2 -12 -5z"/>
<path d="M1653 1553 c9 -2 23 -2 30 0 6 3 -1 5 -18 5 -16 0 -22 -2 -12 -5z"/>
<path d="M1933 1543 c20 -2 54 -2 75 0 20 2 3 4 -38 4 -41 0 -58 -2 -37 -4z"/>
<path d="M3461 1523 c-6 -12 -22 -17 -50 -17 -41 0 -42 -4 -13 -38 10 -12 11
-18 4 -18 -7 0 -12 5 -12 11 0 5 -5 7 -12 3 -7 -5 -8 -3 -3 6 5 8 3 11 -6 8
-8 -3 -22 2 -33 11 -17 14 -16 12 3 -24 11 -22 21 -45 21 -52 0 -7 10 -13 23
-13 13 0 34 -11 47 -25 l23 -25 -21 -23 c-20 -21 -20 -23 -2 -23 10 0 16 4 14
8 -3 4 2 5 11 2 13 -5 13 -9 3 -22 -10 -12 -10 -14 0 -8 7 4 12 1 12 -8 0 -18
16 -21 25 -6 3 6 2 10 -2 10 -5 0 -9 9 -9 20 0 27 17 9 31 -32 9 -29 8 -34
-10 -43 -11 -6 -20 -17 -20 -25 0 -8 -6 -16 -12 -16 -7 -1 -18 -2 -24 -3 -5 0
-7 -5 -4 -11 7 -11 -23 -2 -42 13 -19 14 -16 27 10 37 21 8 21 9 1 9 -29 1
-36 11 -21 29 9 12 9 16 -1 19 -6 3 -10 8 -8 12 3 4 -4 7 -14 7 -10 0 -16 -4
-14 -8 3 -4 -11 -15 -30 -25 -29 -13 -33 -19 -25 -34 6 -12 5 -20 -3 -25 -6
-4 -8 -3 -4 4 3 6 2 13 -3 16 -5 4 -8 -1 -7 -11 2 -9 11 -20 22 -23 10 -4 20
-12 20 -19 1 -6 2 -15 3 -19 2 -16 145 -1 190 20 37 18 77 22 305 33 143 7
263 13 266 14 3 1 -5 6 -17 11 -15 6 -21 15 -17 25 7 17 -2 18 -83 6 -36 -5
-53 -4 -53 3 0 7 -3 6 -8 -1 -5 -8 -24 -10 -55 -7 -31 3 -46 1 -42 -6 4 -6 -1
-7 -11 -3 -11 4 -15 2 -11 -4 6 -9 -27 -8 -62 3 -19 6 5 34 30 34 21 0 23 8
10 29 -6 9 -21 12 -45 9 -20 -2 -36 0 -36 4 0 4 -8 8 -17 9 -10 0 3 7 29 15
38 12 45 17 41 34 -7 26 -46 26 -89 -1 -19 -11 -42 -19 -51 -17 -12 2 -1 10
30 22 49 20 62 36 26 36 -27 0 -61 19 -54 30 3 4 -8 11 -25 15 -17 4 -27 11
-24 17 5 7 -4 9 -25 4 -85 -17 -96 -16 -46 3 l50 19 -35 2 c-19 1 -29 4 -22 7
6 2 12 9 12 14 0 15 -18 10 -29 -8z m-40 -40 c13 -16 12 -17 -3 -4 -17 13 -22
21 -14 21 2 0 10 -8 17 -17z m-36 -213 c7 -11 -44 -34 -53 -25 -6 5 27 34 40
35 4 0 10 -5 13 -10z m135 -60 c0 -5 -2 -10 -4 -10 -3 0 -8 5 -11 10 -3 6 -1
10 4 10 6 0 11 -4 11 -10z"/>
<path d="M3545 1530 c-18 -8 -17 -9 7 -9 15 -1 30 4 33 9 7 12 -12 12 -40 0z"/>
<path d="M3605 1530 c-7 -12 12 -12 40 0 18 8 17 9 -7 9 -15 1 -30 -3 -33 -9z"/>
<path d="M4288 1523 c7 -3 16 -2 19 1 4 3 -2 6 -13 5 -11 0 -14 -3 -6 -6z"/>
<path d="M4338 1513 c7 -3 16 -2 19 1 4 3 -2 6 -13 5 -11 0 -14 -3 -6 -6z"/>
<path d="M2686 1502 c-3 -6 -1 -14 5 -17 15 -10 25 3 12 16 -7 7 -13 7 -17 1z"/>
<path d="M3888 1503 c7 -3 16 -2 19 1 4 3 -2 6 -13 5 -11 0 -14 -3 -6 -6z"/>
<path d="M4400 1506 c0 -2 11 -6 25 -8 14 -3 25 -1 25 3 0 5 -11 9 -25 9 -14
0 -25 -2 -25 -4z"/>
<path d="M2560 1487 c-44 -15 -44 -18 -27 -212 l12 -150 115 2 c63 2 141 3
173 3 32 0 56 4 53 9 -3 4 -18 7 -33 5 -28 -4 -28 -4 2 6 17 5 35 8 42 6 6 -3
14 2 17 10 3 7 2 13 -2 12 -16 -3 -41 15 -35 25 6 10 -33 6 -69 -8 -11 -4 -20
1 -28 15 -8 16 -9 20 -1 16 6 -4 39 -8 74 -10 42 -1 72 -8 92 -21 16 -11 26
-14 22 -7 -5 7 -3 12 7 12 9 0 16 5 16 11 0 5 -4 8 -9 4 -5 -3 -12 -1 -16 5
-4 6 -10 8 -15 5 -4 -3 -6 4 -3 15 3 11 13 21 22 22 9 0 21 2 28 2 6 1 15 4
18 8 4 4 -12 4 -35 2 -28 -4 -40 -2 -35 5 3 6 1 12 -4 12 -6 1 -17 2 -23 3 -7
0 -14 7 -14 14 -1 6 -2 14 -3 16 0 3 -14 1 -30 -4 -33 -9 -46 -3 -30 16 8 9 2
10 -26 4 -42 -9 -46 -4 -7 11 25 10 26 12 7 19 -15 6 -27 1 -46 -17 -21 -19
-28 -21 -32 -10 -3 8 -1 19 5 25 6 6 6 12 -1 16 -6 4 -11 13 -11 19 0 9 3 8 8
-1 7 -9 15 -10 35 -3 15 6 27 7 27 2 0 -14 29 -21 36 -9 4 7 3 8 -4 4 -7 -4
-12 -1 -12 8 0 9 -6 16 -14 16 -7 0 -21 11 -30 25 -16 24 -16 24 31 39 l48 15
-55 -4 c-30 -1 -61 -3 -68 -4 -7 -1 -11 -5 -7 -10 7 -13 -24 -43 -36 -35 -6 3
-8 12 -5 20 11 30 -62 42 -124 21z m45 -74 c-2 -7 8 -10 31 -8 37 2 56 -11 30
-21 -9 -3 -13 -10 -10 -15 3 -5 -1 -9 -8 -9 -13 0 -65 50 -98 93 -11 15 -6 14
23 -5 20 -13 34 -28 32 -35z m65 26 c0 -5 -8 -9 -17 -8 -11 0 -13 3 -5 6 6 2
9 10 6 15 -4 7 -2 8 4 4 7 -4 12 -11 12 -17z m-78 -126 c29 -64 28 -75 -2 -48
-14 13 -17 21 -9 26 8 4 5 13 -10 28 -11 11 -21 28 -21 36 0 30 16 14 42 -42z
m89 10 c13 -16 12 -17 -3 -4 -17 13 -22 21 -14 21 2 0 10 -8 17 -17z m233 -39
c12 -5 13 -10 4 -30 -6 -13 -17 -24 -25 -24 -20 0 -27 28 -13 45 14 17 13 17
34 9z m-174 -40 c0 -8 -4 -14 -10 -14 -5 0 -10 9 -10 21 0 11 5 17 10 14 6 -3
10 -13 10 -21z m118 1 c-3 -3 -9 2 -12 12 -6 14 -5 15 5 6 7 -7 10 -15 7 -18z
m-220 -30 c-3 -3 -9 2 -12 12 -6 14 -5 15 5 6 7 -7 10 -15 7 -18z m58 -58 c3
-22 2 -22 -26 8 l-24 26 23 -9 c14 -5 25 -16 27 -25z"/>
<path d="M1200 1466 c0 -26 1 -26 79 -26 70 0 79 2 84 20 5 19 0 20 -63 20
-38 0 -75 3 -84 6 -12 5 -16 0 -16 -20z"/>
<path d="M2907 1483 c-3 -4 7 -9 21 -10 15 0 42 -3 60 -5 18 -2 35 -1 37 2 2
4 -1 7 -8 7 -7 1 -33 4 -59 8 -25 3 -49 2 -51 -2z"/>
<path d="M3933 1472 c-8 -5 -6 -14 8 -31 11 -14 19 -18 19 -10 1 11 4 10 13
-2 7 -9 18 -14 25 -12 7 3 10 -1 6 -10 -7 -19 16 -34 26 -17 6 9 9 9 16 -1 4
-8 2 -15 -5 -17 -8 -3 5 -23 35 -53 26 -27 49 -55 50 -64 3 -21 -13 -19 -19 3
-3 9 -4 5 -4 -10 1 -26 5 -28 40 -28 21 0 36 3 34 8 -3 4 51 6 119 5 69 -1
122 2 119 7 -3 4 0 10 6 12 8 3 5 10 -6 22 -18 18 -18 18 1 14 12 -2 19 -11
18 -26 -1 -12 3 -22 7 -22 5 0 9 6 9 14 0 25 26 25 53 0 14 -13 33 -24 41 -24
22 0 14 45 -13 65 l-23 18 18 -29 19 -29 -29 23 c-22 17 -32 20 -43 11 -7 -7
-15 -10 -16 -8 -1 2 -9 13 -17 23 -14 18 -13 19 3 13 27 -10 20 1 -13 18 -34
17 -70 20 -70 4 0 -5 5 -7 10 -4 6 3 10 0 10 -7 0 -10 3 -9 11 2 9 13 10 13 6
0 -2 -8 -10 -14 -16 -12 -6 1 -11 -3 -11 -9 0 -6 -9 -1 -20 12 -12 15 -19 18
-18 9 4 -18 -32 -21 -49 -3 -22 20 -16 33 10 24 18 -7 24 -6 24 4 0 8 -4 12
-8 9 -4 -2 -10 0 -14 6 -4 6 -11 7 -17 4 -7 -5 -9 -2 -6 7 4 12 -2 14 -27 11
-30 -4 -33 -2 -28 17 4 15 1 21 -12 21 -13 0 -15 -3 -6 -13 6 -8 9 -16 6 -19
-3 -3 1 -10 9 -17 19 -16 9 -52 -11 -44 -9 4 -22 -2 -30 -13 -14 -18 -15 -18
-9 6 6 23 6 23 -7 8 -8 -10 -17 -15 -21 -11 -3 3 0 13 8 22 14 15 16 21 16 37
0 4 7 1 15 -6 11 -9 15 -10 15 -1 0 7 -7 19 -15 27 -13 13 -15 13 -15 1 0 -8
-7 -20 -16 -27 -12 -11 -15 -11 -12 1 2 10 -5 13 -24 11 -22 -3 -30 2 -38 23
-8 21 -13 25 -23 17 -18 -15 -57 -3 -81 25 -12 13 -26 20 -33 15z m177 -128
c0 -19 -34 -18 -50 1 -9 10 -9 15 -1 15 6 0 11 -5 11 -11 0 -6 6 -9 13 -6 6 2
11 10 9 16 -1 7 2 10 8 6 5 -3 10 -13 10 -21z m145 -4 c-7 -11 32 -43 43 -36
6 3 17 -5 26 -19 9 -13 12 -26 7 -30 -5 -3 -13 0 -16 6 -4 5 -13 8 -21 5 -8
-3 -14 -1 -14 5 0 6 -5 7 -10 4 -16 -10 -51 5 -44 18 5 8 2 8 -7 0 -19 -18
-25 -16 -25 8 0 14 5 19 18 16 16 -5 22 3 20 24 -1 3 5 6 13 6 8 0 12 -3 10
-7z m-107 -60 c7 -11 8 -20 2 -20 -5 0 -7 -8 -3 -17 3 -10 3 -15 -1 -11 -4 3
-8 13 -10 21 -1 8 -8 22 -15 31 -11 13 -11 16 0 16 8 0 20 -9 27 -20z m222
-20 c0 -5 -2 -10 -4 -10 -3 0 -8 5 -11 10 -3 6 -1 10 4 10 6 0 11 -4 11 -10z"/>
<path d="M4295 1290 c-3 -5 -1 -10 4 -10 6 0 11 5 11 10 0 6 -2 10 -4 10 -3 0
-8 -4 -11 -10z"/>
<path d="M1780 1451 c0 -22 26 -31 96 -31 43 0 53 3 57 19 4 16 16 21 53 24
27 2 -8 4 -78 5 -119 2 -128 1 -128 -17z"/>
<path d="M2939 1443 c-13 -16 -12 -17 4 -4 16 13 21 21 13 21 -2 0 -10 -8 -17
-17z"/>
<path d="M2798 1443 c7 -3 16 -2 19 1 4 3 -2 6 -13 5 -11 0 -14 -3 -6 -6z"/>
<path d="M2849 1423 c-12 -16 -12 -17 2 -6 9 7 20 9 24 5 5 -4 5 -1 1 6 -9 16
-11 15 -27 -5z"/>
<path d="M2890 1411 c0 -10 19 -25 25 -20 1 2 -3 10 -11 17 -8 7 -14 8 -14 3z"/>
<path d="M2960 1396 c0 -2 7 -7 16 -10 8 -3 12 -2 9 4 -6 10 -25 14 -25 6z"/>
<path d="M3365 1370 c3 -5 -3 -13 -12 -19 -16 -9 -16 -10 -1 -11 9 0 24 -7 32
-16 11 -10 16 -11 16 -3 0 6 -8 18 -17 25 -15 11 -16 13 -2 14 8 0 20 -5 27
-12 8 -8 12 -8 12 -1 0 6 -14 16 -30 22 -17 5 -28 6 -25 1z"/>
<path d="M3090 1326 c0 -2 8 -10 18 -17 15 -13 16 -12 3 4 -13 16 -21 21 -21
13z"/>
<path d="M3065 1300 c-3 -5 -1 -10 4 -10 6 0 11 5 11 10 0 6 -2 10 -4 10 -3 0
-8 -4 -11 -10z"/>
<path d="M3078 1273 c7 -3 16 -2 19 1 4 3 -2 6 -13 5 -11 0 -14 -3 -6 -6z"/>
<path d="M3140 1250 c0 -5 8 -13 17 -18 13 -8 7 -11 -28 -17 -25 -4 -60 -19
-80 -35 -23 -18 -44 -27 -56 -24 -11 3 -24 -1 -31 -8 -9 -11 -7 -14 9 -15 10
-1 19 4 19 10 0 8 3 8 8 2 8 -12 62 -15 62 -3 0 4 -7 8 -16 8 -8 0 -13 4 -10
9 3 4 17 6 31 4 13 -3 22 -9 19 -14 -3 -5 2 -6 10 -3 9 3 16 13 16 21 0 8 4
12 9 9 5 -3 7 -15 4 -26 -3 -11 0 -20 6 -20 11 0 15 20 12 49 -2 7 2 10 8 6 6
-3 11 -1 11 4 0 6 7 11 17 11 15 0 15 -2 -1 -19 -13 -15 -14 -20 -4 -24 8 -4
7 -6 -4 -6 -10 -1 -18 -6 -18 -12 0 -7 11 -8 33 -3 17 5 44 8 60 8 15 -1 27 2
27 7 0 4 8 10 18 12 12 3 10 5 -7 6 -16 1 -21 5 -17 16 3 9 -1 18 -9 21 -8 4
-12 11 -8 18 4 7 3 8 -5 1 -5 -5 -12 -19 -15 -30 -5 -19 -5 -19 -12 3 -4 12
-12 22 -17 22 -5 0 -6 5 -3 10 6 10 -7 14 -34 11 -7 -2 -10 2 -6 8 3 6 1 11
-4 11 -6 0 -11 -4 -11 -10z"/>
<path d="M6553 1233 c9 -2 23 -2 30 0 6 3 -1 5 -18 5 -16 0 -22 -2 -12 -5z"/>
<path d="M6378 1223 c29 -2 74 -2 100 0 26 2 2 3 -53 3 -55 0 -76 -1 -47 -3z"/>
<path d="M4878 1213 c12 -2 32 -2 45 0 12 2 2 4 -23 4 -25 0 -35 -2 -22 -4z"/>
<path d="M5800 1210 c-9 -6 70 -7 215 -3 127 3 232 7 234 9 10 9 -435 3 -449
-6z"/>
<path d="M5058 1203 c18 -2 45 -2 60 0 15 2 0 4 -33 4 -33 0 -45 -2 -27 -4z"/>
<path d="M5187 1203 c18 -2 50 -2 70 0 21 2 7 4 -32 4 -38 0 -55 -2 -38 -4z"/>
<path d="M5613 1203 c26 -2 68 -2 95 0 26 2 4 3 -48 3 -52 0 -74 -1 -47 -3z"/>
<path d="M6908 1183 c7 -3 16 -2 19 1 4 3 -2 6 -13 5 -11 0 -14 -3 -6 -6z"/>
<path d="M7158 1183 c12 -2 30 -2 40 0 9 3 -1 5 -23 4 -22 0 -30 -2 -17 -4z"/>
<path d="M7240 1183 c0 -5 9 -21 19 -37 11 -16 17 -35 14 -41 -2 -7 1 -16 8
-21 8 -5 10 -3 4 7 -5 9 -5 10 2 4 5 -5 14 -22 21 -37 10 -23 9 -28 -3 -28 -8
0 -12 6 -9 14 3 8 0 17 -5 21 -13 8 -6 -117 11 -182 15 -60 38 -57 39 5 1 26
1 50 0 54 0 4 -3 27 -5 50 -3 24 -9 56 -15 71 -6 16 -11 42 -11 58 0 22 -6 32
-26 39 -14 6 -22 14 -19 20 3 5 -1 10 -9 10 -9 0 -16 -3 -16 -7z m78 -235 c2
-29 1 -50 -1 -48 -8 9 -17 100 -9 100 4 0 8 -24 10 -52z"/>
<path d="M1068 1173 c39 -2 105 -2 145 0 39 1 7 3 -73 3 -80 0 -112 -2 -72 -3z"/>
<path d="M1508 1173 c7 -3 16 -2 19 1 4 3 -2 6 -13 5 -11 0 -14 -3 -6 -6z"/>
<path d="M1798 1163 c6 -2 18 -2 25 0 6 3 1 5 -13 5 -14 0 -19 -2 -12 -5z"/>
<path d="M1887 1163 c18 -2 50 -2 70 0 21 2 7 4 -32 4 -38 0 -55 -2 -38 -4z"/>
<path d="M6568 1163 c12 -2 32 -2 45 0 12 2 2 4 -23 4 -25 0 -35 -2 -22 -4z"/>
<path d="M4050 1150 c-85 -3 -144 -10 -158 -18 -25 -14 -57 -9 -47 8 3 6 -1 7
-9 4 -9 -3 -16 -10 -16 -16 0 -5 -4 -7 -9 -4 -5 3 -8 -12 -7 -33 0 -21 4 -37
9 -34 4 2 7 0 7 -6 0 -5 -5 -13 -10 -16 -7 -4 -7 -11 -2 -18 5 -7 17 -32 26
-57 30 -78 61 -140 68 -140 5 0 8 -8 8 -18 0 -10 5 -23 10 -28 21 -21 20 -57
-3 -78 -12 -12 -25 -20 -29 -18 -5 1 -8 -2 -8 -8 0 -6 -9 -6 -22 -2 -13 5 -38
8 -55 8 -18 -1 -33 1 -33 4 0 4 -41 4 -115 -1 -5 0 -25 3 -43 6 -21 4 -39 2
-49 -6 -12 -11 -17 -10 -27 2 -6 9 -16 14 -23 12 -21 -7 -27 21 -29 142 -3
195 -6 246 -12 205 l-5 -35 -7 30 c-5 19 -8 -5 -9 -68 -1 -72 2 -96 11 -91 7
5 8 3 3 -6 -4 -6 -8 -43 -8 -81 -1 -129 -13 -79 -15 59 -1 75 -4 148 -8 162
-15 61 -16 76 -5 60 6 -8 11 -10 11 -5 0 6 -5 16 -12 23 -9 9 -9 12 3 13 7 1
-1 5 -20 9 -41 10 -61 4 -61 -18 0 -13 -3 -12 -14 3 -14 19 -15 19 -37 0 l-22
-20 6 23 c4 18 3 21 -8 12 -7 -6 -19 -8 -28 -4 -8 3 -18 0 -22 -6 -6 -9 -10
-9 -16 1 -6 11 -11 10 -26 -3 -10 -8 -24 -13 -30 -11 -7 3 -13 -3 -13 -12 0
-12 -5 -15 -16 -11 -9 3 -18 6 -21 6 -4 0 2 9 12 20 18 20 18 20 -11 10 -17
-6 -41 -9 -54 -8 -20 2 -26 -2 -28 -24 -2 -14 -9 -29 -17 -31 -9 -4 -12 2 -10
19 4 37 -29 51 -49 22 -9 -12 -16 -18 -16 -12 0 5 5 15 12 22 9 9 7 12 -9 12
-12 0 -25 -5 -29 -11 -4 -8 -9 -8 -17 0 -20 20 -53 12 -65 -14 -13 -28 -37
-33 -46 -10 -3 8 -1 15 5 15 6 0 7 5 4 10 -3 6 -30 10 -59 10 -45 0 -54 -3
-59 -20 -3 -11 -13 -20 -23 -20 -16 0 -16 1 1 20 18 20 17 20 -9 20 -23 0 -31
-7 -44 -40 -9 -22 -19 -40 -22 -40 -13 0 -8 46 7 62 15 17 13 18 -45 18 -47 0
-62 -3 -62 -14 0 -8 -5 -18 -12 -22 -8 -5 -9 0 -6 14 4 12 2 22 -2 22 -20 0
-40 -13 -40 -26 0 -8 -7 -14 -15 -14 -13 0 -14 4 -4 21 10 20 9 21 -12 16 -13
-4 -27 -7 -31 -7 -5 0 -8 -41 -8 -90 0 -50 -11 -157 -25 -238 -41 -242 -47
-324 -40 -522 3 -102 9 -198 11 -213 l6 -28 229 2 229 1 0 26 c0 25 -1 25 -15
6 -11 -15 -15 -16 -16 -4 0 8 -2 25 -3 37 -1 12 1 20 6 17 4 -3 8 10 7 28 0
18 -3 27 -6 21 -2 -7 -14 -12 -26 -12 -19 1 -19 2 -4 6 14 4 17 11 13 26 -3
12 -6 33 -6 47 0 18 -3 21 -9 11 -6 -8 -10 -9 -12 -2 -2 6 -26 11 -52 12 -42
2 -50 6 -59 28 -25 66 -44 216 -25 204 7 -4 11 18 7 51 -2 17 4 18 77 11 43
-4 81 -12 85 -19 5 -7 8 -5 8 5 0 13 -14 18 -67 23 -90 9 -123 22 -118 47 3
17 0 19 -18 13 -22 -6 -22 -6 -2 12 17 16 21 38 16 79 -1 6 -8 -3 -16 -20
l-14 -30 2 30 c1 17 11 36 22 43 11 7 13 11 5 9 -8 -2 -24 0 -35 4 -13 6 4 7
45 4 169 -13 609 -36 730 -38 95 -1 142 2 158 11 19 11 22 11 22 -6 0 -16 17
-19 188 -31 238 -16 846 -51 893 -51 l36 0 -8 57 c-6 47 -5 61 8 75 9 10 21
18 27 17 7 0 7 -2 -1 -5 -13 -6 -6 -34 8 -34 10 0 6 51 -6 71 -5 8 2 5 15 -6
l22 -20 -20 35 c-20 31 -20 36 -6 57 12 19 13 31 4 66 -6 23 -15 56 -20 74 -5
20 -4 36 4 44 6 8 2 6 -10 -4 -16 -13 -23 -14 -32 -5 -7 7 -12 8 -12 2 0 -5
-4 -3 -9 5 -5 8 -17 16 -26 17 -9 1 -14 0 -11 -3 3 -4 -2 -16 -11 -27 -17 -20
-17 -20 0 -7 23 18 33 8 12 -12 -17 -17 -20 -32 -5 -22 14 9 12 -8 -2 -24 -10
-11 -10 -13 0 -7 15 9 15 1 1 -26 -8 -15 -8 -19 0 -14 15 10 14 -7 -1 -24 -11
-12 -10 -12 5 -1 23 18 21 5 -5 -32 -15 -22 -17 -28 -5 -18 20 16 23 2 5 -19
-11 -12 -10 -12 5 -1 22 17 22 3 0 -29 -13 -19 -14 -22 -2 -13 12 10 18 10 27
1 9 -9 12 -9 12 -1 0 6 -6 13 -12 16 -7 2 -9 8 -5 13 4 5 11 4 15 -1 10 -14
35 -18 30 -5 -2 7 -7 11 -11 10 -9 -1 -37 25 -37 35 0 3 5 3 10 0 6 -3 10 -1
10 6 0 7 7 4 16 -7 14 -18 15 -18 4 4 -6 12 -8 28 -4 35 4 6 4 9 -1 5 -4 -4
-14 -1 -22 7 -13 13 -13 17 0 29 8 9 13 29 11 50 -1 20 2 34 7 31 5 -4 6 2 2
12 -3 10 -2 15 2 11 11 -10 14 -69 3 -62 -4 3 -8 0 -8 -6 0 -6 6 -13 14 -16
13 -5 14 -34 0 -68 -5 -12 -4 -17 3 -13 6 4 9 -5 7 -24 -2 -16 0 -28 5 -25 12
8 6 -53 -7 -66 -9 -9 -12 -9 -12 -1 0 7 5 15 10 18 15 9 12 22 -5 22 -8 0 -15
-8 -15 -17 0 -9 -8 -16 -19 -16 -11 0 -17 5 -14 10 3 5 1 6 -5 2 -7 -4 -17
-17 -24 -29 -10 -19 -9 -20 4 -10 12 11 17 9 25 -10 9 -19 8 -24 -3 -24 -9 0
-13 6 -10 14 3 8 2 12 -3 9 -5 -3 -8 -17 -8 -31 0 -22 2 -24 16 -13 13 10 14
10 3 -2 -15 -17 -84 -22 -79 -6 2 6 10 11 17 11 17 0 24 21 11 30 -7 4 -8 0
-4 -11 4 -11 3 -15 -5 -10 -6 3 -13 2 -17 -4 -4 -6 -10 -8 -15 -5 -5 3 -12 0
-16 -6 -4 -8 -3 -9 4 -5 7 4 12 2 12 -3 0 -14 -17 -14 -25 -1 -5 8 -11 8 -20
0 -10 -9 -20 -7 -40 6 -21 14 -28 15 -35 4 -6 -9 -10 -7 -15 9 -6 20 -7 20
-31 -6 l-24 -26 1 34 c0 27 2 30 8 14 5 -11 6 23 4 75 -6 124 12 345 30 373
14 21 13 22 -32 22 -25 0 -107 -2 -181 -5z m-815 -80 c-4 -12 -9 -19 -12 -17
-3 3 -2 15 2 27 4 12 9 19 12 17 3 -3 2 -15 -2 -27z m-477 -24 c1 -19 -2 -37
-8 -41 -5 -3 -10 -3 -11 2 0 4 -2 19 -3 33 -3 19 5 35 19 40 1 0 2 -15 3 -34z
m418 -17 c-2 -28 -18 -48 -38 -49 -12 0 -9 46 4 74 15 34 37 17 34 -25z m-315
22 c-11 -7 -11 -9 0 -14 11 -3 11 -7 2 -17 -10 -11 -14 -10 -19 3 -6 18 14 52
25 42 3 -3 -1 -10 -8 -14z m30 -4 c-10 -9 -11 -8 -5 6 3 10 9 15 12 12 3 -3 0
-11 -7 -18z m171 0 c-4 -14 -7 -16 -13 -5 -12 19 -11 25 5 25 8 0 11 -8 8 -20z
m141 -7 c-3 -11 -7 -20 -9 -20 -2 0 -4 9 -4 20 0 11 4 20 9 20 5 0 7 -9 4 -20z
m-513 0 c0 -5 -5 -10 -11 -10 -5 0 -7 5 -4 10 3 6 8 10 11 10 2 0 4 -4 4 -10z
m260 -27 c-11 -17 -11 -17 -6 0 3 10 6 24 7 30 0 9 2 9 5 0 3 -7 0 -20 -6 -30z
m-583 -10 c-3 -10 -5 -4 -5 12 0 17 2 24 5 18 2 -7 2 -21 0 -30z m250 7 c0
-19 -4 -27 -10 -21 -5 5 -6 18 -2 30 9 29 12 26 12 -9z m600 8 c-3 -8 -6 -5
-6 6 -1 11 2 17 5 13 3 -3 4 -12 1 -19z m-680 -25 c-3 -10 -5 -4 -5 12 0 17 2
24 5 18 2 -7 2 -21 0 -30z m381 9 c9 9 12 7 12 -12 0 -20 2 -22 10 -10 8 13
10 12 10 -2 0 -21 -11 -23 -28 -6 -9 9 -13 7 -18 -5 -3 -9 -10 -17 -16 -17 -5
0 -7 4 -3 9 3 5 1 12 -4 15 -5 4 -12 -4 -14 -16 -4 -20 -4 -19 -6 5 0 16 4 38
10 49 l12 21 11 -21 c9 -17 14 -20 24 -10z m916 12 c5 -14 4 -15 -9 -4 -17 14
-19 20 -6 20 5 0 12 -7 15 -16z m-1044 -4 c0 -5 -4 -10 -10 -10 -5 0 -10 5
-10 10 0 6 5 10 10 10 6 0 10 -4 10 -10z m1730 -15 c-10 -12 -10 -15 1 -15 10
0 10 -3 1 -12 -8 -8 -8 -15 -2 -23 7 -9 6 -16 -4 -24 -11 -9 -13 -4 -11 33 3
45 13 72 22 62 3 -3 0 -12 -7 -21z m-1823 -17 c-3 -8 -6 -5 -6 6 -1 11 2 17 5
13 3 -3 4 -12 1 -19z m770 -10 c-3 -7 -5 -2 -5 12 0 14 2 19 5 13 2 -7 2 -19
0 -25z m-998 -21 c-1 -31 -1 -31 -9 -7 -11 36 -11 52 0 45 6 -3 10 -21 9 -38z
m199 25 c8 8 11 5 9 -10 0 -11 -4 -19 -8 -16 -4 2 -11 -5 -14 -17 -7 -20 -7
-20 -21 5 -7 15 -10 34 -7 43 6 14 7 14 18 0 9 -12 15 -13 23 -5z m657 -46 c0
-24 -3 -42 -6 -40 -9 5 -9 84 -1 84 4 0 7 -20 7 -44z m-285 -16 c-7 -5 -9 -14
-5 -21 6 -11 5 -11 -5 -2 -15 14 -5 47 11 37 8 -5 8 -9 -1 -14z m-256 -26 c4
-10 2 -13 -6 -8 -8 5 -9 1 -4 -12 5 -14 4 -16 -4 -8 -6 6 -8 18 -4 27 8 21 10
21 18 1z m486 -4 c0 -11 -4 -20 -9 -20 -5 0 -7 9 -4 20 3 11 7 20 9 20 2 0 4
-9 4 -20z m-30 6 c0 -2 -7 -17 -15 -32 -16 -30 -19 -25 -9 14 5 18 24 33 24
18z m1290 -25 c0 -5 -7 -11 -15 -15 -15 -5 -20 5 -8 17 9 10 23 9 23 -2z
m-1240 -17 c0 -9 -9 -18 -20 -21 -11 -3 -20 -12 -20 -20 0 -11 -3 -11 -14 -1
-18 17 -9 37 15 31 11 -3 21 1 25 11 8 20 14 21 14 0z m-294 -18 c11 -23 10
-24 -7 -13 -11 7 -19 17 -19 24 0 21 14 15 26 -11z m-36 5 c0 -6 -4 -13 -10
-16 -5 -3 -10 1 -10 9 0 9 5 16 10 16 6 0 10 -4 10 -9z m393 -6 c-3 -9 -8 -14
-10 -11 -3 3 -2 9 2 15 9 16 15 13 8 -4z m57 -11 c0 -12 -4 -13 -21 -3 -17 9
-19 13 -8 19 16 11 29 4 29 -16z m-683 -16 c-3 -8 -6 -5 -6 6 -1 11 2 17 5 13
3 -3 4 -12 1 -19z m-36 -11 c-10 -9 -11 -8 -5 6 3 10 9 15 12 12 3 -3 0 -11
-7 -18z m370 -10 c-10 -9 -11 -8 -5 6 3 10 9 15 12 12 3 -3 0 -11 -7 -18z m51
-16 c2 -16 -3 -24 -15 -26 -11 -2 -14 1 -10 8 4 7 6 23 4 37 -2 17 0 22 8 15
6 -6 12 -21 13 -34z m303 20 c-11 -10 -33 -22 -50 -26 -37 -8 -27 3 23 26 48
23 50 23 27 0z m-998 -33 c-3 -8 -6 -5 -6 6 -1 11 2 17 5 13 3 -3 4 -12 1 -19z
m437 -4 c9 -23 8 -24 -16 -23 -22 0 -22 1 -3 9 11 5 14 9 8 9 -7 1 -13 6 -13
11 0 16 17 12 24 -6z m126 6 c0 -5 -7 -7 -15 -4 -8 4 -15 8 -15 10 0 2 7 4 15
4 8 0 15 -4 15 -10z m314 -11 c-7 -11 -41 -12 -48 0 -9 13 2 19 29 13 14 -2
22 -8 19 -13z m691 -9 c10 2 48 -61 41 -68 -4 -3 -6 0 -6 7 0 7 -5 9 -12 5 -7
-4 -8 -3 -4 4 4 7 1 12 -8 12 -9 0 -16 6 -16 13 0 9 -2 9 -8 -1 -6 -8 -9 -2
-9 18 0 17 3 26 7 20 4 -7 11 -11 15 -10z m-1638 -6 c-3 -3 -12 -4 -19 -1 -8
3 -5 6 6 6 11 1 17 -2 13 -5z m460 -10 c-3 -3 -12 -4 -19 -1 -8 3 -5 6 6 6 11
1 17 -2 13 -5z m180 0 c-3 -3 -12 -4 -19 -1 -8 3 -5 6 6 6 11 1 17 -2 13 -5z"/>
<path d="M3142 1010 c0 -14 2 -19 5 -12 2 6 2 18 0 25 -3 6 -5 1 -5 -13z"/>
<path d="M4737 1153 c-3 -5 54 -9 126 -9 96 -1 118 1 82 6 -66 11 -203 12
-208 3z"/>
<path d="M550 1139 c0 -5 5 -7 10 -4 6 3 10 8 10 11 0 2 -4 4 -10 4 -5 0 -10
-5 -10 -11z"/>
<path d="M5065 1140 c-19 -8 -19 -9 3 -9 12 -1 22 4 22 9 0 6 -1 10 -2 9 -2 0
-12 -4 -23 -9z"/>
<path d="M5547 1143 c18 -2 50 -2 70 0 21 2 7 4 -32 4 -38 0 -55 -2 -38 -4z"/>
<path d="M5698 1143 c17 -2 47 -2 65 0 17 2 3 4 -33 4 -36 0 -50 -2 -32 -4z"/>
<path d="M5933 1143 c9 -2 25 -2 35 0 9 3 1 5 -18 5 -19 0 -27 -2 -17 -5z"/>
<path d="M6203 1143 c15 -2 37 -2 50 0 12 2 0 4 -28 4 -27 0 -38 -2 -22 -4z"/>
<path d="M5118 1133 c12 -2 30 -2 40 0 9 3 -1 5 -23 4 -22 0 -30 -2 -17 -4z"/>
<path d="M5193 1133 c9 -2 23 -2 30 0 6 3 -1 5 -18 5 -16 0 -22 -2 -12 -5z"/>
<path d="M4696 1101 c-4 -7 -5 -15 -2 -18 9 -9 19 4 14 18 -4 11 -6 11 -12 0z"/>
<path d="M3499 1078 c-5 -21 -6 -59 -1 -62 4 -2 8 11 8 30 0 27 -3 44 -7 32z"/>
<path d="M2028 1053 l-28 -4 28 -35 c33 -42 65 -44 104 -7 l28 26 -5 -269 c-3
-221 -2 -248 6 -150 5 69 14 123 20 127 6 4 8 12 5 18 -4 6 -5 11 -1 11 3 0
10 -10 15 -22 7 -19 9 -20 9 -5 1 10 -3 27 -9 37 -5 10 -7 26 -3 36 6 16 7 16
13 -2 4 -11 10 9 14 54 5 51 4 78 -4 87 -7 8 -8 20 -4 26 4 8 3 9 -4 5 -7 -4
-12 -1 -12 9 0 9 5 13 10 10 18 -11 10 7 -12 26 -14 13 -37 19 -69 19 -26 0
-53 2 -61 3 -7 2 -25 2 -40 0z m153 -170 c-8 -14 -10 -4 -6 37 6 77 8 82 12
28 2 -26 -1 -56 -6 -65z"/>
<path d="M605 1040 c-3 -5 2 -24 11 -42 13 -23 17 -53 15 -100 -1 -54 1 -68
13 -68 8 0 21 -3 29 -6 12 -4 15 9 15 78 0 46 -2 77 -5 71 -9 -23 -20 -14 -36
26 -17 42 -32 57 -42 41z"/>
<path d="M890 1042 c-17 -6 -30 -21 -41 -52 -18 -50 -36 -183 -21 -162 5 7 35
15 68 18 73 6 67 6 134 -1 112 -13 162 -11 233 7 62 16 95 18 247 12 96 -4
188 -7 205 -7 22 0 39 11 66 42 20 22 39 41 41 41 3 0 13 -18 23 -41 18 -39
18 -46 2 -182 -18 -144 -21 -331 -9 -489 l7 -88 -52 0 c-36 0 -53 4 -53 13 0
7 -4 5 -10 -4 -8 -13 -33 -18 -117 -23 -60 -4 -214 -16 -343 -26 -129 -10
-295 -22 -367 -26 -119 -6 -133 -9 -133 -24 0 -10 -3 -25 -6 -34 -6 -15 62
-16 721 -16 l728 0 -7 52 c-3 29 -9 86 -13 126 -5 59 -8 70 -19 61 -12 -10
-14 4 -14 76 0 49 -2 86 -5 84 -6 -6 -13 -90 -14 -166 -1 -70 3 -68 -105 -78
l-68 -7 4 -59 4 -59 -32 0 -32 0 -7 227 c-4 125 -5 277 -1 338 3 60 9 178 12
261 7 149 7 151 33 167 37 23 15 21 -70 -8 -100 -35 -223 -44 -283 -21 -41 16
-49 16 -97 2 -67 -20 -159 -20 -229 0 -130 37 -170 44 -260 49 -52 2 -106 1
-120 -3z"/>
<path d="M4426 993 c-3 -7 0 -12 6 -10 6 1 13 -4 16 -12 3 -9 0 -11 -8 -6 -9
6 -11 4 -6 -4 10 -16 21 -5 21 23 1 24 -21 31 -29 9z"/>
<path d="M4426 922 c-3 -5 1 -9 9 -9 8 0 12 4 9 9 -3 4 -7 8 -9 8 -2 0 -6 -4
-9 -8z"/>
<path d="M4419 876 c-9 -19 -9 -19 4 -4 8 10 16 15 19 12 4 -3 8 -1 12 4 3 5
-2 9 -10 9 -8 0 -20 -10 -25 -21z"/>
<path d="M4450 859 c0 -5 -4 -8 -9 -4 -5 3 -13 0 -17 -6 -4 -8 -3 -9 4 -5 16
10 15 0 -4 -32 -15 -25 -15 -26 0 -7 9 11 20 20 23 20 4 0 8 10 9 23 2 12 1
22 -2 22 -2 0 -4 -5 -4 -11z"/>
<path d="M4310 831 c0 -6 5 -13 10 -16 6 -3 10 1 10 9 0 9 -4 16 -10 16 -5 0
-10 -4 -10 -9z"/>
<path d="M4276 782 c-3 -5 1 -9 9 -9 8 0 12 4 9 9 -3 4 -7 8 -9 8 -2 0 -6 -4
-9 -8z"/>
<path d="M4423 777 c-4 -6 -1 -7 7 -2 10 6 12 4 6 -11 -4 -10 -4 -15 0 -11 4
4 13 -1 21 -11 13 -15 13 -15 3 6 -6 12 -9 26 -6 31 3 4 -2 8 -10 8 -8 0 -18
-5 -21 -10z"/>
<path d="M4283 692 c-1 -22 0 -24 9 -8 6 10 6 22 2 26 -5 5 -10 -3 -11 -18z"/>
<path d="M2890 490 c14 -5 60 -11 102 -15 52 -5 75 -10 72 -18 -7 -21 10 -34
54 -40 40 -5 42 -4 42 20 0 18 4 23 18 19 9 -2 49 -7 87 -11 39 -3 84 -8 100
-12 17 -3 27 -2 24 1 -9 9 -96 21 -294 41 -88 8 -176 17 -195 20 -30 4 -31 3
-10 -5z"/>
<path d="M3592 363 l2 -58 3 53 c2 28 7 52 11 52 4 0 61 -7 127 -15 65 -8 123
-15 127 -15 4 0 8 -11 8 -24 0 -20 6 -24 46 -30 74 -10 84 -8 84 14 0 24 -8
23 155 5 72 -8 135 -15 142 -15 6 0 14 -10 16 -22 4 -20 4 -19 6 5 0 15 -2 27
-7 27 -8 0 -346 38 -567 64 -71 9 -136 16 -142 16 -9 0 -12 -17 -11 -57z"/>
<path d="M3392 270 c0 -14 2 -19 5 -12 2 6 2 18 0 25 -3 6 -5 1 -5 -13z"/>
<path d="M492 245 c0 -16 2 -22 5 -12 2 9 2 23 0 30 -3 6 -5 -1 -5 -18z"/>
<path d="M3394 150 c0 -52 1 -74 3 -47 2 26 2 68 0 95 -2 26 -3 4 -3 -48z"/>
<path d="M4323 145 c0 -44 2 -61 4 -37 2 23 2 59 0 80 -2 20 -4 1 -4 -43z"/>
<path d="M474 175 c3 -9 -1 -18 -8 -21 -9 -3 -14 -18 -14 -35 1 -17 -5 -35
-12 -42 -10 -9 -11 -9 -6 1 4 6 5 12 2 12 -3 0 -10 -10 -17 -21 -9 -17 -8 -20
3 -14 9 6 10 5 3 -3 -5 -6 -77 -16 -160 -22 -279 -21 -287 -27 -39 -29 l231
-1 12 72 c7 40 15 83 18 96 3 13 0 22 -7 22 -7 0 -10 -7 -6 -15z"/>
<path d="M2098 173 c7 -3 16 -2 19 1 4 3 -2 6 -13 5 -11 0 -14 -3 -6 -6z"/>
<path d="M7702 110 c0 -14 2 -19 5 -12 2 6 2 18 0 25 -3 6 -5 1 -5 -13z"/>
<path d="M2886 71 c26 -12 234 -54 240 -49 3 4 -139 36 -236 54 -22 4 -23 3
-4 -5z"/>
<path d="M585 53 c-30 -5 -45 -18 -45 -40 0 -9 18 -13 59 -13 52 0 59 2 65 23
3 12 6 25 6 30 0 7 -33 7 -85 0z"/>
<path d="M3160 10 c14 -4 36 -8 50 -8 22 0 22 1 -5 8 -16 4 -39 8 -50 8 -16 0
-15 -2 5 -8z"/>
</g>
</svg>
